<svg width="350" height="350" xmlns="http://www.w3.org/2000/svg" xmlns:xlink="http://www.w3.org/1999/xlink"><defs><circle id="a" cx="135.2" cy="135" r="135"/><circle id="c" cx="135.2" cy="135" r="135"/><circle id="e" cx="135.2" cy="135" r="135"/><circle id="g" cx="135.2" cy="135" r="135"/></defs><g transform="translate(32 40)" fill="none" fill-rule="evenodd"><circle fill="#0052EE" fill-rule="nonzero" cx="143.2" cy="135" r="135"/><g transform="translate(8)"><mask id="b" fill="#fff"><use xlink:href="#a"/></mask><g mask="url(#b)" fill="#0000D0" fill-rule="nonzero" opacity=".57"><path d="M118.2 207.5c3.3 5.7-8 12.5-25.4 15-17.3 2.6-34.1 0-37.4-5.8-3.3-5.7 8-12.5 25.4-15 17.3-2.5 34.1.1 37.4 5.8zm-55.4 16.6c2 3.5-4.9 7.7-15.6 9.2-10.7 1.5-21 0-23-3.6-2-3.5 4.9-7.7 15.6-9.2 10.6-1.5 20.9.1 23 3.6zM283 193.9c3.3 6.3-7.9 13.7-25 16.5-17.1 2.8-33.6 0-36.9-6.3-3.3-6.3 7.9-13.7 25-16.5 17.1-2.8 33.6 0 36.9 6.3zm-159.7 45.9c2 3.5-4.9 7.7-15.6 9.2-10.7 1.6-21 0-23-3.6-2-3.5 4.9-7.7 15.6-9.2 10.7-1.5 21 .1 23 3.6zm47 5.6c2 3.5-4.9 7.7-15.6 9.2-10.7 1.6-21 0-23-3.6-2-3.5 4.9-7.7 15.6-9.2 10.6-1.5 20.9.1 23 3.6zm-90.5-2.2c1.2 2-2.8 4.4-8.9 5.3-6.1.9-12 0-13.2-2-1.2-2 2.8-4.4 8.9-5.3 6.1-.9 12.1 0 13.2 2zm-26.7-29.6c1.2 2-2.8 4.4-8.9 5.3-6.1.9-12 0-13.2-2-1.2-2 2.8-4.4 8.9-5.3 6.1-1 12-.1 13.2 2zm114.6 6.5c3.3 5.7-8 12.5-25.4 15s-34.1 0-37.4-5.8c-3.3-5.7 8-12.5 25.4-15 17.3-2.6 34.1 0 37.4 5.8z"/><path d="M101.8 228.9c2.1 3.6-5.9 8-17.9 9.8-12 1.8-23.5.3-25.6-3.4-2.1-3.6 5.9-8 17.9-9.8 12.1-1.8 23.5-.2 25.6 3.4zM204 203.6c2.1 3.6-5.9 8-17.9 9.8-12 1.8-23.5.3-25.6-3.4-2.1-3.6 5.9-8 17.9-9.8 12-1.8 23.4-.2 25.6 3.4zM61.8 166.7c3.3 5.7-8 12.5-25.4 15-17.3 2.6-34.1 0-37.4-5.8-3.3-5.8 8-12.5 25.4-15s34.1.1 37.4 5.8zM6.3 183.3c2 3.5-4.9 7.7-15.6 9.2-10.7 1.6-21 0-23-3.6-2-3.5 4.9-7.7 15.6-9.2 10.7-1.5 21 .1 23 3.6zM66.9 199c2 3.5-4.9 7.7-15.6 9.2-10.7 1.6-21 0-23-3.6s4.9-7.7 15.6-9.2c10.6-1.5 20.9.1 23 3.6zm-18.5-52c2 3.5-4.9 7.7-15.6 9.2-10.7 1.5-21 0-23-3.6-2-3.5 4.9-7.7 15.6-9.2 10.7-1.5 21 .1 23 3.6zm-36.3 9.5c2 3.5-4.9 7.7-15.6 9.2-10.7 1.6-21 0-23-3.6-2-3.5 4.9-7.7 15.6-9.2 10.7-1.5 21 .1 23 3.6zm11.3 45.9c1.2 2-2.8 4.4-8.9 5.3-6.1.9-12 0-13.2-2-1.2-2 2.8-4.4 8.9-5.3 6.1-.9 12 0 13.2 2zm-26.8-29.6c1.2 2-2.8 4.4-8.9 5.3-6.1.9-12 0-13.2-2-1.2-2 2.8-4.4 8.9-5.3 6.1-1 12-.1 13.2 2z"/><path d="M111.3 179.3c3.3 5.7-8 12.5-25.4 15-17.3 2.6-34.1 0-37.4-5.8-3.3-5.7 8-12.5 25.4-15s34.1 0 37.4 5.8zm-65.9 8.8c2.1 3.6-5.9 8-17.9 9.8-12 1.8-23.5.3-25.6-3.4-2.1-3.6 5.9-8 17.9-9.8 12-1.8 23.5-.2 25.6 3.4zm62.7-27.8c2.1 3.6-5.9 8-17.9 9.8-12 1.8-23.5.3-25.6-3.4-2.1-3.6 5.9-8 17.9-9.8 12-1.8 23.5-.2 25.6 3.4z"/></g></g><g transform="translate(8)"><mask id="d" fill="#fff"><use xlink:href="#c"/></mask><g opacity=".57" mask="url(#d)" fill="#0000D0" fill-rule="nonzero"><path d="M188.2 232.6c1.6 2.8-3.9 6.1-12.4 7.4-8.5 1.2-16.7 0-18.3-2.8-1.6-2.8 3.9-6.1 12.4-7.4 8.5-1.3 16.7-.1 18.3 2.8z"/></g></g><g transform="translate(8)"><mask id="f" fill="#fff"><use xlink:href="#e"/></mask><g opacity=".38" mask="url(#f)" fill="#231F20" fill-rule="nonzero"><path d="M145.2 173h69.6c3.3 0 5.2 3.8 3.2 6.5l-43 52.1c-.8 1-1.9 1.5-3.2 1.5h-144c-4.3 0-4.2-4.6-4.1-7.6l119.8-52.1c.5-.3 1.1-.4 1.7-.4z"/></g></g><path d="M1.2 104c-.9-2.6.8-5.4 3.5-5.7l118.8-15.7c2.1-.2 4.1 1 4.8 3l29.4 77-112.6 49.2c-2.3 1-5.1-.2-5.9-2.6L1.2 104z" fill="#001B49" fill-rule="nonzero"/><path d="M18.1 107.1l104-15.4c1.2-.2 2.4.5 2.8 1.7l25.2 64.5c.5 1.3-.2 2.7-1.5 3.3l-97.4 38.9c-1.4.5-2.9-.2-3.4-1.6L16 110.4c-.5-1.5.5-3.1 2.1-3.3z" fill="#FFD800" fill-rule="nonzero"/><path d="M34 119.1l81.8-14.5c.7-.1 1.5.3 1.7 1l21.3 53.7c.3.8-.1 1.7-.9 2l-78.5 28.1c-.8.3-1.7-.1-2-1l-24.6-67.3c-.3-.9.3-1.8 1.2-2z" fill="#F49F00" fill-rule="nonzero" opacity=".55"/><path d="M35.9 115.4l81.8-14.5c.7-.1 1.5.3 1.7 1l21.3 53.7c.3.8-.1 1.7-.9 2l-78.5 28.1c-.8.3-1.7-.1-2-1l-24.6-67.3c-.3-.9.3-1.9 1.2-2z" fill="#FFF" fill-rule="nonzero"/><path d="M35.9 115.4l81.8-14.5c.7-.1 1.5.3 1.7 1l1.9 5.1-84.4 16.6-2.2-6.1c-.3-1 .3-2 1.2-2.1z" fill="#DAE8EB" fill-rule="nonzero"/><circle fill="#DEEBF3" fill-rule="nonzero" cx="73.9" cy="93.7" r="1.8"/><path d="M159.1 162.3h65.1c3.1 0 4.9 3.6 3 6.1L187 217.1c-.7.9-1.8 1.4-3 1.4H49.4c-4 0-3.9-4.3-3.8-7.1l112-48.7c.5-.3 1-.4 1.5-.4z" fill="#DEEBF3" fill-rule="nonzero"/><path d="M157 166.7h24.8v1.7l-48.6 41c-.5.6-1.2.9-1.9.9H79l.1-2.4 76.9-41c.3-.1.6-.2 1-.2zm25.5 12.9h20.6c.5 0 .8.6.4 1L191 194.1c-.5.6-1.2.9-2 .9h-23.4c-.5 0-.8-.7-.4-1l15.7-13.8c.5-.4 1-.6 1.6-.6z" fill="#2E89DC" fill-rule="nonzero" opacity=".2"/><path d="M165.108 163.925l.978 1.63-84.197 50.533-.98-1.63 84.199-50.533zm7.278-.158l1.062 1.575-74.305 50.07-1.062-1.577 74.305-50.068zm5.444 1.007l1.153 1.51-64.8 49.43-1.153-1.51 64.8-49.43z" fill="#DEEBF3" fill-rule="nonzero"/><path d="M159.5 179.3h10.3v1.4h-10.3v-1.4zm-11.1 19h-11.1c-.5 0-.9-.4-.9-.9s.4-.9.9-.9h11.1c.5 0 .9.4.9.9s-.4.9-.9.9zm-6.9 6h-12.1c-.5 0-.9-.4-.9-.9s.4-.9.9-.9h12.1c.5 0 .9.4.9.9s-.3.9-.9.9zm23.6-29.3h12.1v1.2h-12.1V175zm5.4-4h12.1v.9h-12.1v-.9zm-48.3 27.1h12.1v1.9h-12.1v-1.9zm8.8-6.3h11.4v1.9H131v-1.9zm7.6-5h10.9v1.4h-10.9v-1.4zm8.1-5h9.3v1.4h-9.3v-1.4zm6.4-4.6h8.8v1.2h-8.8v-1.2zm7.5-4.8h8.1v.9h-8.1v-.9zm-57.7 29.2h13.6v1.9h-13.6v-1.9zm10.1-6.3h12.9v1.9H113v-1.9z" fill="#DEEBF3" fill-rule="nonzero"/><path d="M121.6 190h12.3v1.9h-12.3V190zm8.9-4.7H141v1.4h-10.5v-1.4zm7.5-4.7h10v1.4h-10v-1.4zm8.3-4.9h9.2v1.2h-9.2v-1.2zm-51.5 21.9h14.5v1.9H94.8v-1.9zm9.9-5.2h13v1.9h-13v-1.9zm9.4-5h12.1v1.9h-12.1v-1.9zm8.4-4.4H134v1.4h-11.5V183zm9.7-4.9h9.9v1.2h-9.9v-1.2zm8.6-4.4h8.9v1.2h-8.9v-1.2zm7.9-4.1h7.7v.9h-7.7v-.9zM67.5 203h16.8v1.9H67.5V203z" fill="#DEEBF3" fill-rule="nonzero"/><path d="M79.7 197.1h16.8v1.9H79.7v-1.9zm12.6-5.9h14.6v1.9H92.3v-1.9z" fill="#DEEBF3" fill-rule="nonzero"/><circle fill="#F05B43" fill-rule="nonzero" cx="40.6" cy="118.7" r="1.7"/><circle fill="#EE812B" fill-rule="nonzero" cx="46" cy="117.6" r="1.7"/><circle fill="#199D5F" fill-rule="nonzero" cx="51.5" cy="116.6" r="1.7"/><g transform="translate(8)"><mask id="h" fill="#fff"><use xlink:href="#g"/></mask><g mask="url(#h)" fill-rule="nonzero"><g transform="translate(98 20)"><path d="M33 100.2c-16.7 0-30.3-13.6-30.3-30.3 0-16.7 13.6-30.3 30.3-30.3 16.7 0 30.3 13.6 30.3 30.3 0 16.7-13.6 30.3-30.3 30.3z" fill="#1F9AFF"/><path d="M33 41.5c15.7 0 28.5 12.8 28.5 28.5S48.7 98.5 33 98.5 4.5 85.7 4.5 70 17.3 41.5 33 41.5zm0-3.6C15.3 37.9.9 52.3.9 70c0 17.7 14.4 32 32.1 32 17.7 0 32.1-14.4 32.1-32.1 0-17.7-14.4-32-32.1-32z" fill="#0045EE"/><circle fill="#99E2FF" cx="33" cy="69.9" r="21"/><path d="M145.9 89.4s-3.5 46.8-75.7 23c0 0-12.9 37.7 30.7 47.7 26 6 48.1 8 78.1 0 28.2-7.5 54.8-29.8 49.2-59.3-1.9-10.2-6.8-19.2-13.8-26.7-18.4-19.6-39.6-22.4-56.9-22.6-10.3-.2-24.7-.1-42.6 8-5.5 2.5-8.5 5.2-11.3 11.3-2.4 5.2-3.4 25-3.4 25s26.8 5.6 45.7-6.4z" fill="#FF68B4"/><path d="M114.7 76.5c-1.4 7.3 4.9 13.6 12.2 12.2 4.1-.8 7.4-4.1 8.2-8.1 1.5-7.3-4.9-13.7-12.3-12.3-4 .8-7.3 4.1-8.1 8.2z" fill="#FFF"/><path d="M116.6 78.5c0 2.7 2.2 4.9 4.9 4.9s4.9-2.2 4.9-4.9-2.2-4.9-4.9-4.9-4.9 2.2-4.9 4.9z" fill="#000"/><path d="M128.3 57.1l-4.3 2.7c-.4-.6-33.2-57.9-65.9-53.7-.6 0-7.4.3-13.3 6.9-6.8 7.5-9.9 20.4-8.8 37.4l-5.1.3C29.8 32 33.2 18.1 41.2 9.4 48.7 1.3 57.4 1 57.7 1c32.3-5 69.1 53.6 70.6 56.1z" fill="#FF68B4"/><path d="M35.7 48.2c.4 7.6 7.2 12.9 8.2 21.2C45 78.7 41 85.1 32.3 85.1c-8.5 0-12.1-9-10.5-17.3.9-4.9 5.3-13.5 7-18.5 2-5.8 2.3-10.6 2.4-13.3l4.5 12.2zM85 119.3s.5-20.5-.5-25c0 0-6 19.5-6 28.1l6.5-3.1zm7 2s.5-20.5-.5-25c0 0-6 19.5-6 28.1l6.5-3.1z" fill="#FF68B4"/><ellipse fill="#FFD800" cx="33" cy="69.9" rx="7.9" ry="10.3"/><path d="M158.1 54.9c-3.5-4.7-2.4-11.8 1.4-16.2 3.8-4.4 9.7-6.7 15.5-7.4 5.8-.7 11.7-.1 17.5.2 11.9.6 23.9-.4 35.6-2.9-2.3 8.7-9.5 13-18.9 17.1-6.8 4.6-6.9 9.4-7.4 14.2-.6 5.1-.6 10.3.1 15.4" fill="#FF68B4"/><path d="M79.1 144.1c9.7 2.7 20.1 6.1 29.6 2.7 4.1-1.5 7.6-4.1 11.7-5.6 17.4-6.4 37.8 9.5 54.4 1.5 4.5-2.2 8.2-5.9 12.8-8 9.9-4.4 22.2-.2 32.8-.5-9.4 12.5-21.4 24.8-37.5 29.1-30.1 8-48.1 10.1-73.3 5.9-12.9-2.1-29.1-10.1-34.9-24.9 1 .2 3.4-.5 4.4-.2z" fill="#FFADE2"/></g></g></g><path fill="#FFF" fill-rule="nonzero" d="M100.1 59.9l-1.3 6.4-6.5 1.3 6.7 1.5 1.3 8.4 1.1-8.1 6.9-1.5-6.7-1.3M89.6 49.8l-.8 4.1-4.1.8 4.2 1 .8 5.3.7-5.2 4.4-.9-4.3-.8M106.1 44.6l-.5 2.6-2.7.5 2.8.7.5 3.4.4-3.4 2.8-.6-2.7-.5"/><path d="M107.8 147.7c2.1 7.8-2.5 15.8-10.3 17.9-7.8 2.1-15.8-2.5-17.9-10.3-1.7-6.4 3-27 4.7-34.1.3-1.1 1.6-1.4 2.4-.6 5 5.3 19.4 20.7 21.1 27.1z" fill="#1F9AFF" fill-rule="nonzero"/><path d="M84.9 149.8c-.2-.7-1.2-.5-1.3.2-.2 3.2.3 7.8 3.9 10.3 4.4 3 9.5 1.4 12.3-.1.6-.3.4-1.3-.3-1.2-4.1 0-11.8-1.1-14.6-9.2z" opacity=".51" fill="#FFF" fill-rule="nonzero"/></g></svg>
