<svg version="1.1" xmlns="http://www.w3.org/2000/svg" xmlns:xlink="http://www.w3.org/1999/xlink" id="svg-editor-canvas" class="canvas"><g data-item-type="text" data-item="Business" id="logo__item--business" class="logo__item">
                <g class="logo__item__inner" transform="translate(596.3671875 441.063453487605) scale(1 1) rotate(0 0 0)">
                    <text data-part-id="logo__item--business" dy="0" dominant-baseline="auto" alignment-baseline="auto" font-family="Montserrat" font-size="32px" fill="#9B646B" letter-spacing="0" font-weight="bold" font-style="normal" data-font-family="Montserrat" data-font-weight="bold" data-font-style="normal" data-ttf-url="/builder_assets/fontsttf/font-montserrat-bold-normal.ttf">Blockchain Lotto</text>
                </g>
            </g><g data-item-type="image" data-item="Image" data-logo-item="" id="logo__item--logo_0" class="logo__item logo__item--active logo__item-part--active">
    <g class="logo__item__inner" transform="translate(663.4123000398655 279.5) scale(0.09317492534461472 0.09317492534461472) rotate(0 0 0)">
        
<g>
	<polygon fill="#9B646B" points="359.9,761.9 359.6,947.8 478.2,1012.3 478.6,826.4" data-part-id="logo__item--logo_0__0"></polygon>
	<polygon fill="#EA636E" points="593.4,810.3 588.2,807.5 588.2,768.2 532.2,737.7 359.9,761.9 478.6,826.4" data-part-id="logo__item--logo_0__1"></polygon>
	<polygon fill="#FA7C89" points="612.5,820.7 593.4,810.3 478.6,826.4 478.2,1012.3 523.7,1005.9 524,833.2" data-part-id="logo__item--logo_0__2" class="logo__part--active"></polygon>
	<polygon fill="#006A8B" points="814.9,873.5 814.6,1001.1 830.9,990.5 849.5,991.6 849.7,877.4 812.6,857.1 790.5,860.2" data-part-id="logo__item--logo_0__3"></polygon>
	<polygon fill="#0081AA" points="879,839.8 879,847.8 812.6,857.1 849.7,877.4 1021.9,853.1 1001.1,841.8 907.1,855" data-part-id="logo__item--logo_0__4"></polygon>
	<polygon fill="#0095C5" points="849.5,991.6 965.8,998.4 987.1,1043.9 1021.6,1039 1021.9,853.1 849.7,877.4" data-part-id="logo__item--logo_0__5"></polygon>
	<polygon fill="#006A8B" points="642.6,897.7 524,833.2 523.7,1005.9 523.7,1019.1 642.3,1083.6" data-part-id="logo__item--logo_0__6"></polygon>
	<polygon fill="#0081AA" points="706.8,872 612.5,820.7 524,833.2 642.6,897.7 814.9,873.5 790.5,860.2" data-part-id="logo__item--logo_0__7"></polygon>
	<polygon fill="#0095C5" points="814.6,1001.1 814.9,873.5 642.6,897.7 642.3,1083.6 701.3,1075.3" data-part-id="logo__item--logo_0__8"></polygon>
	<polygon fill="#006A8B" points="879.4,661.9 879,839.8 907.1,855 907.4,669.1 867.9,647.7 856.2,649.3" data-part-id="logo__item--logo_0__9"></polygon>
	<polygon fill="#0081AA" points="956.8,655.9 926.6,639.4 867.9,647.7 907.4,669.1 1079.6,644.9 1070.4,639.9" data-part-id="logo__item--logo_0__10"></polygon>
	<polygon fill="#0095C5" points="907.1,855 1001.1,841.8 1079.3,830.8 1079.6,644.9 907.4,669.1" data-part-id="logo__item--logo_0__11"></polygon>
	<polygon fill="#006A8B" points="593.4,810.3 612.5,820.7 706.8,872 707.1,686.1 689.5,676.6 588.4,690.8 588.2,768.2 588.2,807.5     " data-part-id="logo__item--logo_0__12"></polygon>
	<polygon fill="#0081AA" points="879.4,661.9 856.2,649.3 761.1,662.7 743.3,653 743.2,669 689.5,676.6 707.1,686.1" data-part-id="logo__item--logo_0__13"></polygon>
	<polygon fill="#0095C5" points="879.4,661.9 707.1,686.1 706.8,872 790.5,860.2 812.6,857.1 879,847.8 879,839.8" data-part-id="logo__item--logo_0__14"></polygon>
	<polygon fill="#9B646B" points="957.2,470 933.7,457.2 933.3,638.5 926.6,639.4 956.8,655.9" data-part-id="logo__item--logo_0__15"></polygon>
	<polygon fill="#EA636E" points="933.7,457.2 957.2,470 1129.4,445.8 1010.8,381.3 845.3,404.5 933.7,452.6" data-part-id="logo__item--logo_0__16"></polygon>
	<polygon fill="#FA7C89" points="956.8,655.9 1070.4,639.9 1129.1,631.7 1129.4,445.8 957.2,470" data-part-id="logo__item--logo_0__17"></polygon>
	<polygon fill="#006A8B" points="761.5,476.8 744,467.3 720.5,470.6 743.6,483.1 743.3,653 761.1,662.7" data-part-id="logo__item--logo_0__18"></polygon>
	<polygon fill="#0081AA" points="744,467.3 761.5,476.8 933.7,452.6 845.3,404.5 830.5,396.5 830.4,455.2" data-part-id="logo__item--logo_0__19"></polygon>
	<polygon fill="#0095C5" points="933.7,457.2 933.7,452.6 761.5,476.8 761.1,662.7 856.2,649.3 867.9,647.7 926.6,639.4    933.3,638.5  " data-part-id="logo__item--logo_0__20"></polygon>
	<polygon fill="#006A8B" points="553.9,497.9 468,509.9 452.6,501.5 452.4,628.7 571,693.2 571.4,507.3" data-part-id="logo__item--logo_0__21"></polygon>
	<polygon fill="#0081AA" points="658.1,479.4 640.3,469.7 640.3,485.7 553.9,497.9 571.4,507.3 743.6,483.1 720.5,470.6" data-part-id="logo__item--logo_0__22"></polygon>
	<polygon fill="#0095C5" points="743.2,669 743.3,653 743.6,483.1 571.4,507.3 571,693.2 588.4,690.8 689.5,676.6" data-part-id="logo__item--logo_0__23"></polygon>
	<polygon fill="#006A8B" points="640.3,469.7 658.1,479.4 658.5,293.5 539.8,228.9 539.8,245 640.6,299.8" data-part-id="logo__item--logo_0__24"></polygon>
	<polygon fill="#0081AA" points="830.7,269.3 712.1,204.7 539.8,228.9 658.5,293.5" data-part-id="logo__item--logo_0__25"></polygon>
	<polygon fill="#0095C5" points="658.1,479.4 720.5,470.6 744,467.3 830.4,455.2 830.5,396.5 830.7,269.3 658.5,293.5" data-part-id="logo__item--logo_0__26"></polygon>
	<polygon fill="#006A8B" points="219.7,955.1 102.9,1099.7 154.9,1224.3 271.7,1079.7" data-part-id="logo__item--logo_0__27"></polygon>
	<polygon fill="#0081AA" points="219.7,955.1 271.7,1079.7 421.1,1168.8 369.1,1044.2" data-part-id="logo__item--logo_0__28"></polygon>
	<polygon fill="#0095C5" points="154.9,1224.3 304.3,1313.4 421.1,1168.8 271.7,1079.7" data-part-id="logo__item--logo_0__29"></polygon>
	<polygon fill="#9B646B" points="1099.9,952 1099.6,1137.9 1218.2,1202.4 1218.6,1016.5" data-part-id="logo__item--logo_0__30"></polygon>
	<polygon fill="#EA636E" points="1390.8,992.3 1272.2,927.8 1099.9,952 1218.6,1016.5" data-part-id="logo__item--logo_0__31"></polygon>
	<polygon fill="#FA7C89" points="1218.6,1016.5 1218.2,1202.4 1390.4,1178.2 1390.8,992.3" data-part-id="logo__item--logo_0__32"></polygon>
	<polygon fill="#9B646B" points="685.4,1085.7 764.2,1254 899.1,1261.9 820.2,1093.6" data-part-id="logo__item--logo_0__33"></polygon>
	<polygon fill="#EA636E" points="965.8,998.4 849.5,991.6 830.9,990.5 814.6,1001.1 701.3,1075.3 685.4,1085.7 820.2,1093.6" data-part-id="logo__item--logo_0__34"></polygon>
	<polygon fill="#FA7C89" points="820.2,1093.6 899.1,1261.9 1044.6,1166.7 987.1,1043.9 965.8,998.4" data-part-id="logo__item--logo_0__35"></polygon>
	<polygon fill="#9B646B" points="468.4,324 349.7,259.5 349.4,445.4 452.6,501.5 468,509.9" data-part-id="logo__item--logo_0__36"></polygon>
	<polygon fill="#EA636E" points="640.6,299.8 539.8,245 522,235.3 349.7,259.5 468.4,324" data-part-id="logo__item--logo_0__37"></polygon>
	<polygon fill="#FA7C89" points="640.3,469.7 640.6,299.8 468.4,324 468,509.9 553.9,497.9 640.3,485.7" data-part-id="logo__item--logo_0__38"></polygon>
</g>

    </g>
</g></svg>